<?xml version="1.0" standalone="no"?>
<!DOCTYPE svg PUBLIC "-//W3C//DTD SVG 20010904//EN"
 "http://www.w3.org/TR/2001/REC-SVG-20010904/DTD/svg10.dtd">
<svg version="1.0" xmlns="http://www.w3.org/2000/svg"
 width="200.000000pt" height="200.000000pt" viewBox="0 0 200.000000 200.000000"
 preserveAspectRatio="xMidYMid meet">

<g transform="translate(0.000000,200.000000) scale(0.100000,-0.100000)"
fill="#000000" stroke="none">
<path d="M1057 1415 c-32 -8 -62 -26 -88 -51 -58 -57 -59 -70 -6 -115 47 -41
87 -109 87 -148 0 -18 4 -22 18 -16 60 26 98 27 145 7 59 -26 87 -70 87 -134
0 -47 1 -48 30 -48 48 0 93 -24 132 -69 31 -36 40 -41 77 -41 89 0 154 61 154
145 0 78 -64 145 -138 145 -29 0 -30 2 -30 45 -1 55 -28 95 -80 114 -33 13
-43 13 -80 0 l-43 -16 -12 41 c-32 110 -141 171 -253 141z"/>
</g>
</svg>
